<mxfile host="app.diagrams.net" agent="Mozilla/5.0 (Windows NT 10.0; Win64; x64) AppleWebKit/537.36 (KHTML, like Gecko) Chrome/135.0.0.0 Safari/537.36" version="26.2.13">
  <diagram name="Page-1" id="xVxpuu_V1soBJb-fp25N">
    <mxGraphModel dx="1151" dy="532" grid="1" gridSize="10" guides="1" tooltips="1" connect="1" arrows="1" fold="1" page="1" pageScale="1" pageWidth="827" pageHeight="1169" math="0" shadow="0">
      <root>
        <mxCell id="0" />
        <mxCell id="1" parent="0" />
        <mxCell id="A8c8nlwpGiXMfHj1TzgM-2" style="edgeStyle=orthogonalEdgeStyle;rounded=0;orthogonalLoop=1;jettySize=auto;html=1;" edge="1" parent="1" source="A8c8nlwpGiXMfHj1TzgM-1">
          <mxGeometry relative="1" as="geometry">
            <mxPoint x="330" y="228" as="targetPoint" />
          </mxGeometry>
        </mxCell>
        <mxCell id="A8c8nlwpGiXMfHj1TzgM-1" value="" style="sketch=0;outlineConnect=0;fontColor=#232F3E;gradientColor=none;fillColor=#232F3D;strokeColor=none;dashed=0;verticalLabelPosition=bottom;verticalAlign=top;align=center;html=1;fontSize=12;fontStyle=0;aspect=fixed;pointerEvents=1;shape=mxgraph.aws4.client;" vertex="1" parent="1">
          <mxGeometry x="120" y="190" width="78" height="76" as="geometry" />
        </mxCell>
        <mxCell id="A8c8nlwpGiXMfHj1TzgM-3" value="" style="outlineConnect=0;dashed=0;verticalLabelPosition=bottom;verticalAlign=top;align=center;html=1;shape=mxgraph.aws3.api_gateway;fillColor=#D9A741;gradientColor=none;" vertex="1" parent="1">
          <mxGeometry x="330" y="181.5" width="76.5" height="93" as="geometry" />
        </mxCell>
        <mxCell id="A8c8nlwpGiXMfHj1TzgM-4" value="API Gateway&lt;br&gt;provides&amp;nbsp;&lt;div&gt;authentication&lt;/div&gt;&lt;div&gt;Authorisation&amp;nbsp;&lt;/div&gt;&lt;div&gt;Rate Limiting&amp;nbsp;&lt;/div&gt;" style="text;html=1;align=center;verticalAlign=middle;resizable=0;points=[];autosize=1;strokeColor=none;fillColor=none;" vertex="1" parent="1">
          <mxGeometry x="318.25" y="91.5" width="100" height="90" as="geometry" />
        </mxCell>
        <mxCell id="A8c8nlwpGiXMfHj1TzgM-7" style="edgeStyle=orthogonalEdgeStyle;rounded=0;orthogonalLoop=1;jettySize=auto;html=1;" edge="1" parent="1" source="A8c8nlwpGiXMfHj1TzgM-5">
          <mxGeometry relative="1" as="geometry">
            <mxPoint x="670" y="228" as="targetPoint" />
          </mxGeometry>
        </mxCell>
        <mxCell id="A8c8nlwpGiXMfHj1TzgM-5" value="" style="outlineConnect=0;dashed=0;verticalLabelPosition=bottom;verticalAlign=top;align=center;html=1;shape=mxgraph.aws3.application_load_balancer;fillColor=#F58534;gradientColor=none;direction=north;" vertex="1" parent="1">
          <mxGeometry x="520" y="193.5" width="72" height="69" as="geometry" />
        </mxCell>
        <mxCell id="A8c8nlwpGiXMfHj1TzgM-6" style="edgeStyle=orthogonalEdgeStyle;rounded=0;orthogonalLoop=1;jettySize=auto;html=1;entryX=0.5;entryY=0;entryDx=0;entryDy=0;entryPerimeter=0;" edge="1" parent="1" source="A8c8nlwpGiXMfHj1TzgM-3" target="A8c8nlwpGiXMfHj1TzgM-5">
          <mxGeometry relative="1" as="geometry" />
        </mxCell>
        <mxCell id="A8c8nlwpGiXMfHj1TzgM-11" style="edgeStyle=orthogonalEdgeStyle;rounded=0;orthogonalLoop=1;jettySize=auto;html=1;entryX=0;entryY=0.5;entryDx=0;entryDy=0;exitX=0.5;exitY=1;exitDx=0;exitDy=0;" edge="1" parent="1" source="A8c8nlwpGiXMfHj1TzgM-8" target="A8c8nlwpGiXMfHj1TzgM-15">
          <mxGeometry relative="1" as="geometry">
            <mxPoint x="710" y="70" as="targetPoint" />
            <Array as="points">
              <mxPoint x="710" y="260" />
              <mxPoint x="711" y="260" />
              <mxPoint x="711" y="330" />
              <mxPoint x="770" y="330" />
            </Array>
          </mxGeometry>
        </mxCell>
        <mxCell id="A8c8nlwpGiXMfHj1TzgM-38" style="edgeStyle=orthogonalEdgeStyle;rounded=0;orthogonalLoop=1;jettySize=auto;html=1;exitX=0.5;exitY=0;exitDx=0;exitDy=0;dashed=1;" edge="1" parent="1" source="A8c8nlwpGiXMfHj1TzgM-8" target="A8c8nlwpGiXMfHj1TzgM-39">
          <mxGeometry relative="1" as="geometry">
            <mxPoint x="760" y="70" as="targetPoint" />
          </mxGeometry>
        </mxCell>
        <mxCell id="A8c8nlwpGiXMfHj1TzgM-8" value="" style="image;html=1;image=img/lib/clip_art/networking/Cloud_Server_128x128.png" vertex="1" parent="1">
          <mxGeometry x="670" y="186" width="80" height="80" as="geometry" />
        </mxCell>
        <mxCell id="A8c8nlwpGiXMfHj1TzgM-9" value="load&amp;nbsp;&lt;div&gt;balancer&amp;nbsp;&lt;/div&gt;" style="text;html=1;align=center;verticalAlign=middle;resizable=0;points=[];autosize=1;strokeColor=none;fillColor=none;" vertex="1" parent="1">
          <mxGeometry x="515" y="133" width="70" height="40" as="geometry" />
        </mxCell>
        <mxCell id="A8c8nlwpGiXMfHj1TzgM-10" value="1. sends&amp;nbsp;&amp;nbsp;&lt;span style=&quot;background-color: transparent; color: light-dark(rgb(0, 0, 0), rgb(255, 255, 255));&quot;&gt;request&lt;/span&gt;" style="text;html=1;align=center;verticalAlign=middle;resizable=0;points=[];autosize=1;strokeColor=none;fillColor=none;" vertex="1" parent="1">
          <mxGeometry x="200" y="200" width="120" height="30" as="geometry" />
        </mxCell>
        <mxCell id="A8c8nlwpGiXMfHj1TzgM-50" style="edgeStyle=orthogonalEdgeStyle;rounded=0;orthogonalLoop=1;jettySize=auto;html=1;exitX=1;exitY=0.5;exitDx=0;exitDy=0;" edge="1" parent="1" source="A8c8nlwpGiXMfHj1TzgM-12" target="A8c8nlwpGiXMfHj1TzgM-51">
          <mxGeometry relative="1" as="geometry">
            <mxPoint x="1230" y="442" as="targetPoint" />
            <Array as="points">
              <mxPoint x="1290" y="280" />
              <mxPoint x="1290" y="375" />
            </Array>
          </mxGeometry>
        </mxCell>
        <mxCell id="A8c8nlwpGiXMfHj1TzgM-12" value="MongoDB" style="shape=rect;fillColor=#0F62FE;aspect=fixed;resizable=0;labelPosition=center;verticalLabelPosition=bottom;align=center;verticalAlign=top;strokeColor=none;fontSize=14;" vertex="1" parent="1">
          <mxGeometry x="1114.25" y="256" width="48" height="48" as="geometry" />
        </mxCell>
        <mxCell id="A8c8nlwpGiXMfHj1TzgM-13" value="" style="fillColor=#ffffff;strokeColor=none;dashed=0;outlineConnect=0;html=1;labelPosition=center;verticalLabelPosition=bottom;verticalAlign=top;part=1;movable=0;resizable=0;rotatable=0;shape=mxgraph.ibm_cloud.database--mongodb" vertex="1" parent="A8c8nlwpGiXMfHj1TzgM-12">
          <mxGeometry width="24" height="24" relative="1" as="geometry">
            <mxPoint x="12" y="12" as="offset" />
          </mxGeometry>
        </mxCell>
        <mxCell id="A8c8nlwpGiXMfHj1TzgM-14" value="2. recieves task&amp;nbsp;&lt;div&gt;id back ,&amp;nbsp;&lt;/div&gt;&lt;div&gt;polls for status&amp;nbsp;&lt;/div&gt;" style="text;html=1;align=center;verticalAlign=middle;resizable=0;points=[];autosize=1;strokeColor=none;fillColor=none;" vertex="1" parent="1">
          <mxGeometry x="205" y="262.5" width="110" height="60" as="geometry" />
        </mxCell>
        <mxCell id="A8c8nlwpGiXMfHj1TzgM-20" style="edgeStyle=orthogonalEdgeStyle;rounded=0;orthogonalLoop=1;jettySize=auto;html=1;exitX=1;exitY=0.5;exitDx=0;exitDy=0;entryX=0;entryY=0.5;entryDx=0;entryDy=0;entryPerimeter=0;" edge="1" parent="1" source="A8c8nlwpGiXMfHj1TzgM-15" target="A8c8nlwpGiXMfHj1TzgM-21">
          <mxGeometry relative="1" as="geometry">
            <mxPoint x="930" y="280" as="targetPoint" />
          </mxGeometry>
        </mxCell>
        <mxCell id="A8c8nlwpGiXMfHj1TzgM-23" style="edgeStyle=orthogonalEdgeStyle;rounded=0;orthogonalLoop=1;jettySize=auto;html=1;exitX=1;exitY=0.5;exitDx=0;exitDy=0;" edge="1" parent="1" source="A8c8nlwpGiXMfHj1TzgM-15" target="A8c8nlwpGiXMfHj1TzgM-22">
          <mxGeometry relative="1" as="geometry" />
        </mxCell>
        <mxCell id="A8c8nlwpGiXMfHj1TzgM-15" value="" style="strokeColor=#dddddd;shadow=1;strokeWidth=1;rounded=1;absoluteArcSize=1;arcSize=2;" vertex="1" parent="1">
          <mxGeometry x="790" y="300" width="90" height="44" as="geometry" />
        </mxCell>
        <mxCell id="A8c8nlwpGiXMfHj1TzgM-16" value="Task&#xa;Queues" style="sketch=0;dashed=0;connectable=0;html=1;fillColor=#757575;strokeColor=none;shape=mxgraph.gcp2.task_queues;part=1;labelPosition=right;verticalLabelPosition=middle;align=left;verticalAlign=middle;spacingLeft=5;fontSize=12;" vertex="1" parent="A8c8nlwpGiXMfHj1TzgM-15">
          <mxGeometry y="0.5" width="32" height="32" relative="1" as="geometry">
            <mxPoint x="5" y="-16" as="offset" />
          </mxGeometry>
        </mxCell>
        <mxCell id="A8c8nlwpGiXMfHj1TzgM-17" value="Server" style="text;html=1;align=center;verticalAlign=middle;resizable=0;points=[];autosize=1;strokeColor=none;fillColor=none;" vertex="1" parent="1">
          <mxGeometry x="670" y="143" width="60" height="30" as="geometry" />
        </mxCell>
        <mxCell id="A8c8nlwpGiXMfHj1TzgM-25" style="edgeStyle=orthogonalEdgeStyle;rounded=0;orthogonalLoop=1;jettySize=auto;html=1;exitX=0;exitY=0;exitDx=0;exitDy=0;exitPerimeter=0;entryX=0.25;entryY=0;entryDx=0;entryDy=0;" edge="1" parent="1" source="A8c8nlwpGiXMfHj1TzgM-18" target="A8c8nlwpGiXMfHj1TzgM-15">
          <mxGeometry relative="1" as="geometry">
            <Array as="points">
              <mxPoint x="950" y="200" />
              <mxPoint x="813" y="200" />
            </Array>
          </mxGeometry>
        </mxCell>
        <mxCell id="A8c8nlwpGiXMfHj1TzgM-18" value="" style="outlineConnect=0;dashed=0;verticalLabelPosition=bottom;verticalAlign=top;align=center;html=1;shape=mxgraph.aws3.worker;fillColor=#D9A741;gradientColor=none;" vertex="1" parent="1">
          <mxGeometry x="950" y="190" width="40" height="40" as="geometry" />
        </mxCell>
        <mxCell id="A8c8nlwpGiXMfHj1TzgM-19" style="edgeStyle=orthogonalEdgeStyle;rounded=0;orthogonalLoop=1;jettySize=auto;html=1;exitX=1;exitY=0.5;exitDx=0;exitDy=0;entryX=0;entryY=0.5;entryDx=0;entryDy=0;entryPerimeter=0;" edge="1" parent="1" source="A8c8nlwpGiXMfHj1TzgM-15" target="A8c8nlwpGiXMfHj1TzgM-18">
          <mxGeometry relative="1" as="geometry" />
        </mxCell>
        <mxCell id="A8c8nlwpGiXMfHj1TzgM-33" style="edgeStyle=orthogonalEdgeStyle;rounded=0;orthogonalLoop=1;jettySize=auto;html=1;exitX=1;exitY=0.5;exitDx=0;exitDy=0;exitPerimeter=0;entryX=0;entryY=0.5;entryDx=0;entryDy=0;" edge="1" parent="1" source="A8c8nlwpGiXMfHj1TzgM-21" target="A8c8nlwpGiXMfHj1TzgM-12">
          <mxGeometry relative="1" as="geometry" />
        </mxCell>
        <mxCell id="A8c8nlwpGiXMfHj1TzgM-21" value="" style="outlineConnect=0;dashed=0;verticalLabelPosition=bottom;verticalAlign=top;align=center;html=1;shape=mxgraph.aws3.worker;fillColor=#D9A741;gradientColor=none;" vertex="1" parent="1">
          <mxGeometry x="950" y="260" width="40" height="40" as="geometry" />
        </mxCell>
        <mxCell id="A8c8nlwpGiXMfHj1TzgM-22" value="" style="outlineConnect=0;dashed=0;verticalLabelPosition=bottom;verticalAlign=top;align=center;html=1;shape=mxgraph.aws3.worker;fillColor=#D9A741;gradientColor=none;" vertex="1" parent="1">
          <mxGeometry x="950" y="330" width="40" height="50" as="geometry" />
        </mxCell>
        <mxCell id="A8c8nlwpGiXMfHj1TzgM-24" value="worker &lt;br&gt;nodes&amp;nbsp;" style="text;html=1;align=center;verticalAlign=middle;resizable=0;points=[];autosize=1;strokeColor=none;fillColor=none;" vertex="1" parent="1">
          <mxGeometry x="940" y="138" width="60" height="40" as="geometry" />
        </mxCell>
        <mxCell id="A8c8nlwpGiXMfHj1TzgM-26" value="task Distribution&lt;div&gt;&amp;nbsp;among workers&amp;nbsp;&lt;/div&gt;" style="text;html=1;align=center;verticalAlign=middle;resizable=0;points=[];autosize=1;strokeColor=none;fillColor=none;" vertex="1" parent="1">
          <mxGeometry x="780" y="344" width="110" height="40" as="geometry" />
        </mxCell>
        <mxCell id="A8c8nlwpGiXMfHj1TzgM-27" value="if task fails&amp;nbsp;&lt;br&gt;sent for retry&amp;nbsp;" style="text;html=1;align=center;verticalAlign=middle;resizable=0;points=[];autosize=1;strokeColor=none;fillColor=none;" vertex="1" parent="1">
          <mxGeometry x="815" y="143" width="90" height="40" as="geometry" />
        </mxCell>
        <mxCell id="A8c8nlwpGiXMfHj1TzgM-28" value="if fails N times&lt;br&gt;Send to dead&amp;nbsp;&lt;div&gt;letter queue&lt;/div&gt;" style="text;html=1;align=center;verticalAlign=middle;resizable=0;points=[];autosize=1;strokeColor=none;fillColor=none;" vertex="1" parent="1">
          <mxGeometry x="815" y="198" width="100" height="60" as="geometry" />
        </mxCell>
        <mxCell id="A8c8nlwpGiXMfHj1TzgM-29" value="" style="outlineConnect=0;dashed=0;verticalLabelPosition=bottom;verticalAlign=top;align=center;html=1;shape=mxgraph.aws3.s3;fillColor=#E05243;gradientColor=none;" vertex="1" parent="1">
          <mxGeometry x="1100" y="133" width="76.5" height="93" as="geometry" />
        </mxCell>
        <mxCell id="A8c8nlwpGiXMfHj1TzgM-32" style="edgeStyle=orthogonalEdgeStyle;rounded=0;orthogonalLoop=1;jettySize=auto;html=1;exitX=1;exitY=0.5;exitDx=0;exitDy=0;exitPerimeter=0;entryX=0;entryY=0.5;entryDx=0;entryDy=0;entryPerimeter=0;" edge="1" parent="1" source="A8c8nlwpGiXMfHj1TzgM-21" target="A8c8nlwpGiXMfHj1TzgM-29">
          <mxGeometry relative="1" as="geometry" />
        </mxCell>
        <mxCell id="A8c8nlwpGiXMfHj1TzgM-35" value="Document&amp;nbsp;&lt;div&gt;store&lt;br&gt;with&amp;nbsp;&lt;/div&gt;&lt;div&gt;multiple read and&amp;nbsp;&lt;/div&gt;&lt;div&gt;write replicas&lt;/div&gt;" style="text;html=1;align=center;verticalAlign=middle;resizable=0;points=[];autosize=1;strokeColor=none;fillColor=none;" vertex="1" parent="1">
          <mxGeometry x="1078.25" y="330" width="120" height="90" as="geometry" />
        </mxCell>
        <mxCell id="A8c8nlwpGiXMfHj1TzgM-36" value="blob&amp;nbsp;&lt;div&gt;store&lt;span style=&quot;background-color: transparent; color: light-dark(rgb(0, 0, 0), rgb(255, 255, 255));&quot;&gt;&amp;nbsp;&amp;nbsp;&lt;/span&gt;&lt;/div&gt;" style="text;html=1;align=center;verticalAlign=middle;resizable=0;points=[];autosize=1;strokeColor=none;fillColor=none;" vertex="1" parent="1">
          <mxGeometry x="1054.25" y="208" width="60" height="40" as="geometry" />
        </mxCell>
        <mxCell id="A8c8nlwpGiXMfHj1TzgM-39" value="" style="image;aspect=fixed;perimeter=ellipsePerimeter;html=1;align=center;shadow=0;dashed=0;fontColor=#4277BB;labelBackgroundColor=default;fontSize=12;spacingTop=3;image=img/lib/ibm/infrastructure/monitoring_logging.svg;" vertex="1" parent="1">
          <mxGeometry x="760" y="30" width="60" height="60" as="geometry" />
        </mxCell>
        <mxCell id="A8c8nlwpGiXMfHj1TzgM-40" value="Centralised logging ,&amp;nbsp;&lt;div&gt;&lt;span style=&quot;background-color: transparent; color: light-dark(rgb(0, 0, 0), rgb(255, 255, 255));&quot;&gt;&amp;nbsp;monitoring ,&lt;/span&gt;&lt;div&gt;&lt;span style=&quot;background-color: transparent; color: light-dark(rgb(0, 0, 0), rgb(255, 255, 255));&quot;&gt;&amp;nbsp;metric tracking&amp;nbsp; &amp;nbsp;&lt;/span&gt;&lt;/div&gt;&lt;/div&gt;" style="text;html=1;align=center;verticalAlign=middle;resizable=0;points=[];autosize=1;strokeColor=none;fillColor=none;" vertex="1" parent="1">
          <mxGeometry x="630" y="31.5" width="140" height="60" as="geometry" />
        </mxCell>
        <mxCell id="A8c8nlwpGiXMfHj1TzgM-41" style="edgeStyle=orthogonalEdgeStyle;rounded=0;orthogonalLoop=1;jettySize=auto;html=1;exitX=1;exitY=0.5;exitDx=0;exitDy=0;dashed=1;exitPerimeter=0;entryX=1;entryY=0.5;entryDx=0;entryDy=0;" edge="1" parent="1" source="A8c8nlwpGiXMfHj1TzgM-18" target="A8c8nlwpGiXMfHj1TzgM-39">
          <mxGeometry relative="1" as="geometry">
            <mxPoint x="1020" y="20" as="targetPoint" />
            <mxPoint x="940" y="116" as="sourcePoint" />
          </mxGeometry>
        </mxCell>
        <mxCell id="A8c8nlwpGiXMfHj1TzgM-43" value="" style="image;sketch=0;aspect=fixed;html=1;points=[];align=center;fontSize=12;image=img/lib/mscae/Resource_Graph_Explorer.svg;" vertex="1" parent="1">
          <mxGeometry x="1005.25" y="480" width="49" height="50" as="geometry" />
        </mxCell>
        <mxCell id="A8c8nlwpGiXMfHj1TzgM-44" style="edgeStyle=orthogonalEdgeStyle;rounded=0;orthogonalLoop=1;jettySize=auto;html=1;exitX=0.5;exitY=1;exitDx=0;exitDy=0;exitPerimeter=0;entryX=0.444;entryY=0;entryDx=0;entryDy=0;entryPerimeter=0;" edge="1" parent="1" source="A8c8nlwpGiXMfHj1TzgM-22" target="A8c8nlwpGiXMfHj1TzgM-43">
          <mxGeometry relative="1" as="geometry" />
        </mxCell>
        <mxCell id="A8c8nlwpGiXMfHj1TzgM-45" value="Microsoft&amp;nbsp;&lt;br&gt;Graph API" style="text;html=1;align=center;verticalAlign=middle;resizable=0;points=[];autosize=1;strokeColor=none;fillColor=none;" vertex="1" parent="1">
          <mxGeometry x="990" y="533" width="80" height="40" as="geometry" />
        </mxCell>
        <mxCell id="A8c8nlwpGiXMfHj1TzgM-46" value="" style="sketch=0;pointerEvents=1;shadow=0;dashed=0;html=1;strokeColor=none;fillColor=#005F4B;labelPosition=center;verticalLabelPosition=bottom;verticalAlign=top;align=center;outlineConnect=0;shape=mxgraph.veeam2.cpu;" vertex="1" parent="1">
          <mxGeometry x="910" y="260" width="28.000000000000004" height="28.000000000000004" as="geometry" />
        </mxCell>
        <mxCell id="A8c8nlwpGiXMfHj1TzgM-47" value="" style="sketch=0;points=[[0,0,0],[0.25,0,0],[0.5,0,0],[0.75,0,0],[1,0,0],[0,1,0],[0.25,1,0],[0.5,1,0],[0.75,1,0],[1,1,0],[0,0.25,0],[0,0.5,0],[0,0.75,0],[1,0.25,0],[1,0.5,0],[1,0.75,0]];outlineConnect=0;fontColor=#232F3E;fillColor=#01A88D;strokeColor=#ffffff;dashed=0;verticalLabelPosition=bottom;verticalAlign=top;align=center;html=1;fontSize=12;fontStyle=0;aspect=fixed;shape=mxgraph.aws4.resourceIcon;resIcon=mxgraph.aws4.augmented_ai;" vertex="1" parent="1">
          <mxGeometry x="862" y="477" width="53" height="53" as="geometry" />
        </mxCell>
        <mxCell id="A8c8nlwpGiXMfHj1TzgM-48" style="edgeStyle=orthogonalEdgeStyle;rounded=0;orthogonalLoop=1;jettySize=auto;html=1;exitX=0.5;exitY=1;exitDx=0;exitDy=0;exitPerimeter=0;entryX=0.5;entryY=0;entryDx=0;entryDy=0;entryPerimeter=0;" edge="1" parent="1" source="A8c8nlwpGiXMfHj1TzgM-22" target="A8c8nlwpGiXMfHj1TzgM-47">
          <mxGeometry relative="1" as="geometry" />
        </mxCell>
        <mxCell id="A8c8nlwpGiXMfHj1TzgM-49" value="ML&amp;nbsp;&lt;div&gt;Modules&amp;nbsp;&lt;/div&gt;" style="text;html=1;align=center;verticalAlign=middle;resizable=0;points=[];autosize=1;strokeColor=none;fillColor=none;" vertex="1" parent="1">
          <mxGeometry x="853.5" y="533" width="70" height="40" as="geometry" />
        </mxCell>
        <mxCell id="A8c8nlwpGiXMfHj1TzgM-52" style="edgeStyle=orthogonalEdgeStyle;rounded=0;orthogonalLoop=1;jettySize=auto;html=1;" edge="1" parent="1" source="A8c8nlwpGiXMfHj1TzgM-51" target="A8c8nlwpGiXMfHj1TzgM-53">
          <mxGeometry relative="1" as="geometry">
            <mxPoint x="1258.35" y="470" as="targetPoint" />
          </mxGeometry>
        </mxCell>
        <mxCell id="A8c8nlwpGiXMfHj1TzgM-51" value="" style="points=[];aspect=fixed;html=1;align=center;shadow=0;dashed=0;fillColor=#FF6A00;strokeColor=none;shape=mxgraph.alibaba_cloud.kafka;" vertex="1" parent="1">
          <mxGeometry x="1260" y="390" width="56.699999999999996" height="42" as="geometry" />
        </mxCell>
        <mxCell id="A8c8nlwpGiXMfHj1TzgM-58" style="edgeStyle=orthogonalEdgeStyle;rounded=0;orthogonalLoop=1;jettySize=auto;html=1;" edge="1" parent="1" source="A8c8nlwpGiXMfHj1TzgM-53" target="A8c8nlwpGiXMfHj1TzgM-59">
          <mxGeometry relative="1" as="geometry">
            <mxPoint x="1360" y="250" as="targetPoint" />
          </mxGeometry>
        </mxCell>
        <mxCell id="A8c8nlwpGiXMfHj1TzgM-53" value="" style="sketch=0;outlineConnect=0;fontColor=#232F3E;gradientColor=none;fillColor=#8C4FFF;strokeColor=none;dashed=0;verticalLabelPosition=bottom;verticalAlign=top;align=center;html=1;fontSize=12;fontStyle=0;aspect=fixed;pointerEvents=1;shape=mxgraph.aws4.data_lake_resource_icon;" vertex="1" parent="1">
          <mxGeometry x="1249.35" y="484" width="78" height="78" as="geometry" />
        </mxCell>
        <mxCell id="A8c8nlwpGiXMfHj1TzgM-54" value="Data l&lt;span style=&quot;background-color: transparent; color: light-dark(rgb(0, 0, 0), rgb(255, 255, 255));&quot;&gt;akes&lt;/span&gt;&lt;div&gt;for long data&amp;nbsp;&lt;/div&gt;&lt;div&gt;&lt;span style=&quot;background-color: transparent; color: light-dark(rgb(0, 0, 0), rgb(255, 255, 255));&quot;&gt;persistence and&amp;nbsp;&amp;nbsp;&lt;/span&gt;&lt;/div&gt;&lt;div&gt;&lt;span style=&quot;background-color: transparent; color: light-dark(rgb(0, 0, 0), rgb(255, 255, 255));&quot;&gt;performing&lt;/span&gt;&lt;/div&gt;&lt;div&gt;Analytics&amp;nbsp;&lt;/div&gt;" style="text;html=1;align=center;verticalAlign=middle;resizable=0;points=[];autosize=1;strokeColor=none;fillColor=none;" vertex="1" parent="1">
          <mxGeometry x="1131" y="480" width="110" height="90" as="geometry" />
        </mxCell>
        <mxCell id="A8c8nlwpGiXMfHj1TzgM-55" value="CDC pattern" style="text;html=1;align=center;verticalAlign=middle;resizable=0;points=[];autosize=1;strokeColor=none;fillColor=none;" vertex="1" parent="1">
          <mxGeometry x="1178.25" y="288" width="90" height="30" as="geometry" />
        </mxCell>
        <mxCell id="A8c8nlwpGiXMfHj1TzgM-56" value="kaka" style="text;html=1;align=center;verticalAlign=middle;resizable=0;points=[];autosize=1;strokeColor=none;fillColor=none;" vertex="1" parent="1">
          <mxGeometry x="1198.25" y="396" width="50" height="30" as="geometry" />
        </mxCell>
        <mxCell id="A8c8nlwpGiXMfHj1TzgM-57" value="Like this there can be different&amp;nbsp;&lt;div&gt;&amp;nbsp;API for data fetching and&amp;nbsp;&lt;/div&gt;&lt;div&gt;manipulation&amp;nbsp;&lt;/div&gt;" style="text;html=1;align=center;verticalAlign=middle;resizable=0;points=[];autosize=1;strokeColor=none;fillColor=none;" vertex="1" parent="1">
          <mxGeometry x="650" y="484" width="190" height="60" as="geometry" />
        </mxCell>
        <mxCell id="A8c8nlwpGiXMfHj1TzgM-61" style="edgeStyle=orthogonalEdgeStyle;rounded=0;orthogonalLoop=1;jettySize=auto;html=1;" edge="1" parent="1" source="A8c8nlwpGiXMfHj1TzgM-59" target="A8c8nlwpGiXMfHj1TzgM-60">
          <mxGeometry relative="1" as="geometry" />
        </mxCell>
        <mxCell id="A8c8nlwpGiXMfHj1TzgM-59" value="" style="points=[];aspect=fixed;html=1;align=center;shadow=0;dashed=0;fillColor=#FF6A00;strokeColor=none;shape=mxgraph.alibaba_cloud.spark_data_insights;" vertex="1" parent="1">
          <mxGeometry x="1370" y="344" width="36.98" height="40.1" as="geometry" />
        </mxCell>
        <mxCell id="A8c8nlwpGiXMfHj1TzgM-60" value="" style="sketch=0;outlineConnect=0;fontColor=#232F3E;gradientColor=none;fillColor=#8C4FFF;strokeColor=none;dashed=0;verticalLabelPosition=bottom;verticalAlign=top;align=center;html=1;fontSize=12;fontStyle=0;aspect=fixed;pointerEvents=1;shape=mxgraph.aws4.opensearch_dashboards;" vertex="1" parent="1">
          <mxGeometry x="1349.49" y="200" width="78" height="59" as="geometry" />
        </mxCell>
        <mxCell id="A8c8nlwpGiXMfHj1TzgM-62" value="Business&amp;nbsp;&lt;div&gt;Dashboards&lt;/div&gt;" style="text;html=1;align=center;verticalAlign=middle;resizable=0;points=[];autosize=1;strokeColor=none;fillColor=none;" vertex="1" parent="1">
          <mxGeometry x="1343.49" y="153.5" width="90" height="40" as="geometry" />
        </mxCell>
      </root>
    </mxGraphModel>
  </diagram>
</mxfile>
